<svg viewBox="0 0 100 100" xmlns="http://www.w3.org/2000/svg">
<path d="M0,2 L0,2,0.1,2.3576047,0.2,2.700953,0.3,3.0163565,0.4,3.291241,0.5,3.5146477,0.6,3.6776705,0.7,3.7738094,0.8,3.7992325,0.9,3.7529256,1,3.6367354,1.1,3.4552934,1.2,3.2158337,1.3,2.9279027,1.4,2.6029787,1.5,2.254016,1.6,1.8949264,1.7,1.5400258,1.8,1.2034633,1.9,0.8986559,2,0.6377555,2.1,0.4311639,2.2,0.2871163,2.3,0.21135628,2.4,0.2069037,2.5,0.27393627,2.6,0.40978146,2.7,0.60902405,2.8,0.86371994,2.9,1.1637163,3,1.4970522,3.1,1.8504387,3.2,2.2097888,3.3,2.5607743,3.4,2.8894043,3.5,3.1825757,3.6,3.4286017,3.7,3.6176748,3.8,3.7422552,3.9,3.797378,4,3.7808447,4.1,3.693315,4.2,3.5382783,4.3,3.3219142,4.4,3.0528507,4.5,2.7418132,4.6,2.4012022,4.7,2.0445964,4.8,1.6862111,4.9,1.3403373,5,1.020762,5.1,0.7402258,5.2,0.5099127,5.3,0.33900404,5.4,0.23431468,5.5,0.20001769,5.6,0.23748004,5.7,0.3452084,5.8,0.518909,5.9,0.7516551,6,1.0341687,6.1,1.3551869,6.2,1.7019118,6.3,2.060522,6.4,2.416718,6.5,2.7563007,6.6,3.065732,6.7,3.3326762,6.8,3.5464916,6.9,3.6986523,7,3.7830932,7.1,3.796448,7.2,3.7381842,7.3,3.6106238,7.4,3.4188533,7.5,3.1705182,7.6,2.8755178,7.7,2.5456138,7.8,2.193956,7.9,1.8345673,8,1.4817741,8.1,1.1496392,8.2,0.8514085,8.3,0.5989659,8.4,0.40238,8.5,0.26948464,8.6,0.20557976,8.7,0.21321309,8.8,0.29208016,8.9,0.43903542,9,0.64822304,9.1,0.911302,9.2,1.2177813,9.3,1.555448,9.4,1.9108344,9.5,2.269779,9.6,2.617968,9.7,2.9415178,9.8,3.227535,9.9,3.464612,10,3.6433015,10.1,3.756477,10.2,3.7996273,10.3,3.7710319,10.4,3.6718318,10.5,3.50598,10.6,3.2800891,10.7,3.0031676,10.8,2.6862502,10.9,2.3419774,11,1.9840677,11.1,1.6267931,11.2,1.2844005,11.3,0.97053325,11.4,0.6977104,11.5,0.4768033,11.6,0.31662178,11.7,0.22355223,11.8,0.20130324,11.9,0.25076258,12,0.369959,12.1,0.55414057,12.2,0.79596186,12.3,1.0857868,12.4,1.4120555,12.5,1.7617669,12.6,2.120976,12.7,2.4753587,12.8,2.8107936,12.9,3.113902,13,3.3726053,13.1,3.5765865,13.2,3.7177129,13.3,3.7903607,13.4,3.7916322,13.5,3.7214766,13.6,3.5826907,13.7,3.3808098,13.8,3.1238782,13.9,2.822144,14,2.4876304,14.1,2.1336765,14.2,1.7743965,14.3,1.4241074,14.4,1.0967805,14.5,0.805459,14.6,0.56176054,14.7,0.37540197,14.8,0.25380957,14.9,0.20183289,15,0.22154307,15.1,0.3121555,15.2,0.47005534,15.3,0.688951,15.4,0.96011174,15.5,1.2727323,15.6,1.6143467,15.7,1.9713328,15.8,2.329465,15.9,2.6744592,16,2.992568,16.1,3.271106,16.2,3.4989686,16.3,3.667069,16.4,3.768712,16.5,3.7998414,16.6,3.7592163,16.7,3.648456,16.8,3.4719808,16.9,3.236819,17,2.952349,17.1,2.6299112,17.2,2.2823608,17.3,1.9235603,17.4,1.5678005,17.5,1.2292712,17.6,0.92146873,17.7,0.65666413,17.8,0.44541812,17.9,0.29614413,18,0.2147981,18.1,0.20462298,18.2,0.26602435,18.3,0.39655137,18.4,0.5910051,18.5,0.8416314,18.6,1.1384386,18.7,1.4695938,18.8,1.8218879,18.9,2.1812894,19,2.5334635,19.1,2.8643699,19.2,3.1608162,19.3,3.4109797,19.4,3.604897,19.5,3.7348316,19.6,3.7956033,19.7,3.7847896,19.8,3.7028236,19.9,3.55297,20,3.3412037,20.1,3.0759676,20.2,2.7678356,20.3,2.429099,20.4,2.0732493,20.5,1.7144792,20.6,1.3670921,20.7,1.0449371,20.8,0.76086295,20.9,0.5261837,21,0.3502612,21.1,0.2401092,21.2,0.20011902,21.3,0.23188365,21.4,0.33413804,21.5,0.5028055,21.6,0.73116183,21.7,1.0101032,21.8,1.3285024,21.9,1.6736782,22,2.0318635,22.1,2.3887784,22.2,2.7301939,22.3,3.0424929,22.4,3.3132372,22.5,3.5316262,22.6,3.6889539,22.7,3.7789478,22.8,3.7980204,22.9,3.7454119,23,3.623219,23.1,3.436313,23.2,3.1921453,23.3,2.900456,23.4,2.572863,23.5,2.2224317,23.6,1.8631325,23.7,1.50929,23.8,1.1750166,23.9,0.8736265,24,0.6171417,24.1,0.41578746,24.2,0.27759123,24.3,0.20806324,24.4,0.20997262,24.5,0.28324533,24.6,0.42496002,24.7,0.62946725,24.8,0.8886082,24.9,1.1920617,25,1.5277252,25.1,1.8822172,25.2,2.2414048,25.3,2.5909617,25.4,2.9169655,25.5,3.2064126,25.6,3.4477632,25.7,3.6313958,25.8,3.7499876,25.9,3.7988155,26,3.7759295,26.1,3.6822424,26.2,3.5214891,26.3,3.3000832,26.4,3.0268428,26.5,2.7126653,26.6,2.3700757,26.7,2.0127323,26.8,1.6548882,26.9,1.3107955,27,0.9941797,27.1,0.71766305,27.2,0.49226952,27.3,0.32698727,27.4,0.22839975,27.5,0.20044076,27.6,0.24422503,27.7,0.35800707,27.8,0.5372467,27.9,0.77480495,28,1.0612082,28.1,1.3850384,28.2,1.7333854,28.3,2.0923548,28.4,2.447649,28.5,2.7850966,28.6,3.0912447,28.7,3.353888,28.8,3.5625522,28.9,3.7089267,29,3.787171,29.1,3.7941656,29.2,3.7296324,29.3,3.5961463,29.4,3.399025,29.5,3.1461284,29.6,2.847539,29.7,2.5151606,29.8,2.162251,29.9,1.8028663,30,1.4513409,30.1,1.1216888,30.2,0.8270526,30.3,0.57918274,30.4,0.3879515,30.5,0.260988,30.6,0.20335412,30.7,0.21734715,30.8,0.30240726,30.9,0.45514655,31,0.66947484,31.1,0.9368472,31.2,1.2466044,31.3,1.5863907,31.4,1.9426728,31.5,2.3012402,31.6,2.647798,31.7,2.9685302,31.8,3.2506447,31.9,3.4829054,32,3.6560469,32.1,3.763165,32.2,3.7999935,32.3,3.7650616,32.4,3.659759,32.5,3.4882915,32.6,3.2574925,32.7,2.9765513,32.8,2.6566892,32.9,2.310634,33,1.9522079,33.1,1.5956873,33.2,1.2552722,33.3,0.9445596,33.4,0.67591345,33.5,0.46006417,33.6,0.30560517,33.7,0.2186923,33.8,0.2027973,33.9,0.25855207,34,0.38373017,34.1,0.57334185,34.2,0.8198385,34.3,1.1133748,34.4,1.4422699,34.5,1.7933873,34.6,2.1527414,34.7,2.5060198,34.8,2.8391113,34.9,3.138762,35,3.3930032,35.1,3.5917113,35.2,3.7269688,35.3,3.793373,35.4,3.7882817,35.5,3.7118983,35.6,3.567269,35.7,3.3601506,35.8,3.0988154,35.9,2.7936633,36,2.456882,36.1,2.1018867,36.2,1.7428163,36.3,1.3940122,36.4,1.0693545,36.5,0.7818105,36.6,0.54283035,36.7,0.3619355,36.8,0.24635124,36.9,0.20067692,37,0.22673678,37.1,0.32348895,37.2,0.4870838,37.3,0.71098685,37.4,0.98628867,37.5,1.3019931,37.6,1.645524,37.7,2.0032,37.8,2.3607352,37.9,2.7039018,38,3.0189939,38.1,3.2934628,38.2,3.5163743,38.3,3.6788254,38.4,3.7743511,38.5,3.7991362,38.6,3.7521977,38.7,3.635401,38.8,3.453411,38.9,3.21347,39,2.9251614,39.1,2.5999703,39.2,2.2508476,39.3,1.8917376,39.4,1.5369303,39.5,1.2005973,39.6,0.89613295,39.7,0.635666,39.8,0.42959988,39.9,0.28613472,40,0.21100044,40.1,0.20718586,40.2,0.2748469,40.3,0.41128087,40.4,0.61105895,40.5,0.86620164,40.6,1.1665438,40.7,1.5001255,40.8,1.8536229,40.9,2.2129693,41,2.5638118,41.1,2.8921776,41.2,3.1849866,41.3,3.4305434,41.4,3.6190767,41.5,3.743056,41.6,3.7975473,41.7,3.7803764,41.8,3.6922288,41.9,3.5366125,42,3.3197427,42.1,3.0502603,42.2,2.7388964,42.3,2.398087,42.4,2.0413938,42.5,1.6830639,42.6,1.3373687,42.7,1.0180786,42.8,0.7379458,42.9,0.50811803,43,0.33777487,43.1,0.2336973,43.2,0.20003474,43.3,0.2381314,43.4,0.34647167,43.5,0.520728,43.6,0.7539563,43.7,1.0368707,43.8,1.358171,43.9,1.7050716,44,2.063717,44.1,2.4198222,44.2,2.7592034,44.3,3.068305,44.4,3.3348274,44.5,3.5481248,44.6,3.6997054,44.7,3.7835279,44.8,3.7962446,44.9,3.737349,45,3.6091938,45.1,3.4168873,45.2,3.168085,45.3,2.872725,45.4,2.54256,45.5,2.1907775,45.6,1.8313895,45.7,1.4787102,45.8,1.1468261,45.9,0.8489437,46,0.596961,46.1,0.40091145,46.2,0.26860678,46.3,0.20533144,46.4,0.21360338,46.5,0.29309225,46.6,0.44062793,46.7,0.6503382,46.8,0.91384673,46.9,1.2206678,47,1.5585464,47.1,1.9140239,47.2,2.2729425,47.3,2.6209664,47.4,2.9442468,47.5,3.229871,47.6,3.466466,47.7,3.6446047,47.8,3.7571723,47.9,3.7996893,48,3.7704577,48.1,3.6706457,48.2,3.5042248,48.3,3.277842,48.4,3.000506,48.5,2.6832938,48.6,2.3388417,48.7,1.9808676,48.8,1.6236699,48.9,1.281462,49,0.96791255,49.1,0.6955081,49.2,0.47510064,49.3,0.31549358,49.4,0.22303843,49.5,0.2014277,49.6,0.25151825,49.7,0.37131894,49.8,0.5560448,49.9,0.7983451,50,1.0885419,50.1,1.4150745,50.2,1.7649392,50.3,2.1241617,50.4,2.4784477,50.5,2.8136463,50.6,3.1164086,50.7,3.3746731,50.8,3.578125,50.9,3.7186677,51,3.790688,51.1,3.7913218,51.2,3.720539,51.3,3.5811672,51.4,3.3787527,51.5,3.1213794,51.6,2.819302,51.7,2.4845493,51.8,2.1304917,51.9,1.7712187,52,1.4210796,52.1,1.0940198,52.2,0.8030671,52.3,0.5598427,52.4,0.37402523,52.5,0.2530365,52.6,0.20169163,52.7,0.22203958,52.8,0.3132676,52.9,0.4717456,53,0.6911435,53.1,0.9627199,53.2,1.2756608,53.3,1.6174664,53.4,1.974536,53.5,2.332607,53.6,2.6774187,53.7,2.995236,53.8,3.273365,53.9,3.500738,54,3.6682732,54.1,3.769302,54.2,3.799796,54.3,3.7585375,54.4,3.6471682,54.5,3.4701366,54.6,3.234497,54.7,2.9496317,54.8,2.6269188,54.9,2.2791998,55,1.9203632,55.1,1.5647013,55.2,1.2263806,55.3,0.91891396,55.4,0.65453625,55.5,0.44380748,55.6,0.29511714,55.7,0.21439135,55.8,0.20485449,55.9,0.26688588,56,0.398008,56.1,0.59299445,56.2,0.8440826,56.3,1.1412436,56.4,1.4726527,56.5,1.8250725,56.6,2.1844661,56.7,2.536519,56.8,2.8671694,56.9,3.16326,57,3.4129648,57.1,3.6063404,57.2,3.7356822,57.3,3.7958236,57.4,3.7843716,57.5,3.7017837,57.6,3.551353,57.7,3.3390675,57.8,3.0734057,57.9,2.76494,58,2.4259906,58.1,2.0700586,58.2,1.71132,58.3,1.3641038,58.4,1.0422262,58.5,0.7585437,58.6,0.52435267,58.7,0.34898388,58.8,0.23944175,58.9,0.20008516,59,0.23248613,59.1,0.33535016,59.2,0.5045843,59.3,0.73342884,59.4,1.0127776,59.5,1.3314726,59.6,1.6768191,59.7,2.035063,59.8,2.3918958,59.9,2.7331176,60,3.0451002,60.1,3.315419,60.2,3.5333052,60.3,3.6900554,60.4,3.7794328,60.5,3.7978673,60.6,3.744629,60.7,3.6218333,60.8,3.434386,60.9,3.1897457,61,2.8976836,61.1,2.569835,61.2,2.2192557,61.3,1.8599488,61.4,1.5062118,61.5,1.1721737,61.6,0.8711375,61.7,0.61509526,61.8,0.41427386,61.9,0.2766645,62,0.20776343,62.1,0.21031106,62.2,0.28420997,62.3,0.4265083,62.4,0.631544,62.5,0.8911272,62.6,1.1949165,62.7,1.530814,62.8,1.8854038,62.9,2.2445755,63,2.5939834,63.1,2.9197118,63.2,3.2087855,63.3,3.4496584,63.4,3.6327455,63.5,3.750734,63.6,3.7989285,63.7,3.7754054,63.8,3.6811037,63.9,3.5197768,64,3.2978678,64.1,3.0242186,64.2,2.7097383,64.3,2.3669367,64.4,2.0095322,64.5,1.651748,64.6,1.3078468,64.7,0.99153876,64.8,0.7154145,64.9,0.49052382,65,0.32580936,65.1,0.22783756,65.2,0.20051408,65.3,0.24493432,65.4,0.35932076,65.5,0.539114,65.6,0.77714634,65.7,1.0639284,65.8,1.3880534,65.9,1.7365507,66,2.0955505,66.1,2.450741,66.2,2.7879627,66.3,3.0937934,66.4,3.3559947,66.5,3.5641384,66.6,3.7099266,66.7,3.7875476,66.8,3.7939048,66.9,3.7287436,67,3.5946646,67.1,3.3970137,67.2,3.1436696,67.3,2.8447084,67.4,2.5120935,67.5,2.1590636,67.6,1.7996926,67.7,1.448307,67.8,1.118891,67.9,0.82462716,68,0.5772202,68.1,0.38653338,68.2,0.2601683,68.3,0.20316124,68.4,0.21779323,68.5,0.30347395,68.6,0.45678782,68.7,0.6716229,68.8,0.9394367,68.9,1.249512,69,1.5895059,69.1,1.9458646,69.2,2.3043811,69.3,2.6507893,69.4,2.971226,69.5,3.2529442,69.6,3.484713,69.7,3.6572928,69.8,3.7638092,69.9,3.7999992,70,3.7644312,70.1,3.658523,70.2,3.486497,70.3,3.255191,70.4,2.9738617,70.5,2.6537085,70.6,2.3074949,70.7,1.9490228,70.8,1.5925561,70.9,1.25236,71,0.94196904,71.1,0.6737571,71.2,0.4584167,71.3,0.30452323,71.4,0.21823525,71.5,0.20297837,71.6,0.25936103,71.7,0.38513517,71.8,0.5753038,71.9,0.8222568,72,1.1161611,72.1,1.4453003,72.2,1.796553,72.3,2.1559436,72.4,2.50909,72.5,2.8419414,72.6,3.141228,72.7,3.395019,72.8,3.5932095,72.9,3.7278683,73,3.7936444,73.1,3.787916,73.2,3.710911,73.3,3.565686,73.4,3.3580523,73.5,3.0962791,73.6,2.7908022,73.7,2.4537992,73.8,2.098678,73.9,1.7396494,74,1.3909999,74.1,1.0666285,74.2,0.7794666,74.3,0.5409459,74.4,0.36061156,74.5,0.24563241,74.6,0.2005924,74.7,0.2272867,74.8,0.3246615,74.9,0.48881984,75,0.7132225,75.1,0.9889232,75.2,1.3049312,75.3,1.6486754,75.4,2.0064,75.5,2.3638697,75.6,2.7068334,75.7,3.0216188,75.8,3.2956958,75.9,3.5180962,76,3.679977,76.1,3.7748842,76.2,3.7990346,76.3,3.7514591,76.4,3.6340616,76.5,3.451521,76.6,3.2111146,76.7,2.9224265,76.8,2.596939,76.9,2.2476783,77,1.8885434,77.1,1.5338519,77.2,1.1977437,77.3,0.89359605,77.4,0.6335807,77.5,0.42803848,77.6,0.28516352,77.7,0.21065152,77.8,0.20747554,77.9,0.2757628,78,0.41278768,78.1,0.6130879,78.2,0.86867833,78.3,1.1693938,78.4,1.5032005,78.5,1.8568126,78.6,2.2161329,78.7,2.5668368,78.8,2.8949676,78.9,3.1873937,79,3.4324832,79.1,3.6204662,79.2,3.7438483,79.3,3.7977123,79.4,3.7799022,79.5,3.6911354,79.6,3.5349505,79.7,3.3175735,79.8,3.0476484,79.9,2.7359772,80,2.3949654,80.1,2.0382082,80.2,1.6799278,80.3,1.3343818,80.4,1.015398,80.5,0.73566604,80.6,0.5063375,80.7,0.33655488,80.8,0.23308122,80.9,0.20005739,81,0.23878944,81.1,0.34773326,81.2,0.5225457,81.3,0.7562777,81.4,1.0395758,81.5,1.3611617,81.6,1.7082154,81.7,2.0669012,81.8,2.4229467,81.9,2.7621036,82,3.070879,82.1,3.336963,82.2,3.549748,82.3,3.7007604,82.4,3.783957,82.5,3.796035,82.6,3.736513,82.7,3.6077638,82.8,3.414903,82.9,3.1656485,83,2.8699248,83.1,2.539521,83.2,2.1876087,83.3,1.8281901,83.4,1.4756482,83.5,1.1440097,83.6,0.84649587,83.7,0.59496725,83.8,0.3994385,83.9,0.2677344,84,0.20508814,84.1,0.21399713,84.2,0.29410636,84.3,0.44223583,84.4,0.6524577,84.5,0.9164002,84.6,1.2235413,84.7,1.5616362,84.8,1.9172343,84.9,2.2761052,85,2.623969,85.1,2.946958,85.2,3.2321959,85.3,3.468327,85.4,3.6459029,85.5,3.7578635,85.6,3.799746,85.7,3.7698803,85.8,3.669447,85.9,3.502465,86,3.2755864,86.1,2.9978557,86.2,2.680345,86.3,2.3356848,86.4,1.9776678,86.5,1.6205411,86.6,1.2785417,86.7,0.96530366,86.8,0.6932957,86.9,0.47340262,87,0.3143685,87.1,0.2225331,87.2,0.2015574,87.3,0.2522844,87.4,0.37268412,87.5,0.55795777,87.6,0.8007194,87.7,1.091291,87.8,1.4181149,87.9,1.7681123,88,2.127354,88.1,2.4815187,88.2,2.8164873,88.3,3.1189277,88.4,3.3767369,88.5,3.5796614,88.6,3.7196121,88.7,3.791009,88.8,3.7910037,88.9,3.719596,89,3.5796356,89.1,3.3767018,89.2,3.1188853,89.3,2.8164392,89.4,2.4814665,89.5,2.1272998,89.6,1.7680584,89.7,1.4180635,89.8,1.0912441,89.9,0.80067897,90,0.5579252,90.1,0.37266088,90.2,0.2522714,90.3,0.20155513,90.4,0.22254169,90.5,0.31438756,90.6,0.47343135,90.7,0.6933329,90.8,0.9653481,90.9,1.2785914,91,1.620594,91.1,1.977722,91.2,2.3357382,91.3,2.6803951,91.4,2.997901,91.5,3.2756248,91.6,3.5024948,91.7,3.669467,91.8,3.76989,91.9,3.799745,92,3.7578518,92.1,3.6458807,92.2,3.4682958,92.3,3.2321563,92.4,2.9469118,92.5,2.623918,92.6,2.2760515,92.7,1.9171801,92.8,1.5615835,92.9,1.2234923,93,0.9163569,93.1,0.6524217,93.2,0.44220853,93.3,0.29408908,93.4,0.21399045,93.5,0.20509219,93.6,0.26774907,93.7,0.39946342,93.8,0.5950011,93.9,0.8465375,94,1.1440574,94.1,1.4756999,94.2,1.8282442,94.3,2.1876628,94.4,2.5395727,94.5,2.8699722,94.6,3.16569,94.7,3.4149365,94.8,3.607788,94.9,3.7365274,95,3.7960386,95.1,3.7839499,95.2,3.7007427,95.3,3.5497203,95.4,3.3369267,95.5,3.0708354,95.6,2.7620544,95.7,2.422894,95.8,2.066847,95.9,1.7081618,96,1.3611109,96.1,1.0395298,96.2,0.75623846,96.3,0.5225147,96.4,0.34771168,96.5,0.23877823,96.6,0.20005691,96.7,0.23309147,96.8,0.3365755,96.9,0.5063678,97,0.73570466,97.1,1.0154433,97.2,1.3344321,97.3,1.6799812,97.4,2.0382624,97.5,2.3950183,97.6,2.7360268,97.7,3.0476928,97.8,3.3176107,97.9,3.5349789,98,3.691154,98.1,3.7799106,98.2,3.7977095,98.3,3.743835,98.4,3.6204429,98.5,3.4324505,98.6,3.1873527,98.7,2.8949203,98.8,2.5667853,98.9,2.216079,99,1.8567586,99.1,1.5031484,99.2,1.1693456,99.3,0.868636,99.4,0.6130533,99.5,0.41276205,99.6,0.27574718,99.7,0.20747066,99.8,0.21065748,99.9,0.28517997 M0,6 L0,6,0.1,6.1797004,0.2,6.357605,0.3,6.531936,0.4,6.700953,0.5,6.862966,0.6,7.0163565,0.7,7.1595917,0.8,7.2912407,0.9,7.4099884,1,7.5146475,1.1,7.604173,1.2,7.6776705,1.3,7.7344046,1.4,7.7738094,1.5,7.795491,1.6,7.7992325,1.7,7.7849965,1.8,7.752926,1.9,7.70334,2,7.6367354,2.1,7.5537767,2.2,7.4552937,2.3,7.3422694,2.4,7.2158337,2.5,7.0772495,2.6,6.9279027,2.7,6.769284,2.8,6.6029787,2.9,6.430649,3,6.254016,3.1,6.0748453,3.2,5.8949265,3.3,5.716058,3.4,5.5400257,3.5,5.3685904,3.6,5.2034636,3.7,5.046295,3.8,4.898656,3.9,4.762021,4,4.6377554,4.1,4.5271015,4.2,4.431164,4.3,4.350901,4.4,4.287116,4.5,4.240446,4.6,4.211356,4.7,4.200138,4.8,4.2069035,4.9,4.2315855,5,4.2739363,5.1,4.3335333,5.2,4.4097815,5.3,4.501919,5.4,4.609024,5.5,4.730027,5.6,4.86372,5.7,5.0087657,5.8,5.1637163,5.9,5.327022,6,5.497052,6.1,5.672107,6.2,5.8504386,6.3,6.0302653,6.4,6.209789,6.5,6.387216,6.6,6.5607743,6.7,6.7287292,6.8,6.8894043,6.9,7.0411916,7,7.1825757,7.1,7.3121443,7.2,7.4286017,7.3,7.530786,7.4,7.617675,7.5,7.6884,7.6,7.742255,7.7,7.7787027,7.8,7.797378,7.9,7.7980943,8,7.7808447,8.1,7.7458014,8.2,7.693315,8.3,7.623909,8.4,7.5382786,8.5,7.437277,8.6,7.321914,8.7,7.193345,8.8,7.0528507,8.9,6.9018383,9,6.741813,9.1,6.5743766,9.2,6.401202,9.3,6.2240176,9.4,6.0445967,9.5,5.864728,9.6,5.686211,9.7,5.5108314,9.8,5.3403373,9.9,5.176436,10,5.020762,10.1,4.874872,10.2,4.740226,10.3,4.6181655,10.4,4.5099125,10.5,4.416548,10.6,4.339004,10.7,4.278057,10.8,4.234315,10.9,4.2082148,11,4.200018,11.1,4.2098055,11.2,4.23748,11.3,4.2827654,11.4,4.345208,11.5,4.424186,11.6,4.518909,11.7,4.6284294,11.8,4.751655,11.9,4.887353,12,5.0341687,12.1,5.190635,12.2,5.355187,12.3,5.526183,12.4,5.701912,12.5,5.8806205,12.6,6.060522,12.7,6.239817,12.8,6.416718,12.9,6.589453,13,6.7563004,13.1,6.9155912,13.2,7.065732,13.3,7.205226,13.4,7.332676,13.5,7.4468117,13.6,7.5464916,13.7,7.630718,13.8,7.6986523,13.9,7.7496133,14,7.7830935,14.1,7.798757,14.2,7.7964478,14.3,7.7761893,14.4,7.738184,14.5,7.682811,14.6,7.610624,14.7,7.5223446,14.8,7.4188533,14.9,7.301187,15,7.170518,15.1,7.028154,15.2,6.875518,15.3,6.714133,15.4,6.545614,15.5,6.3716416,15.6,6.193956,15.7,6.014334,15.8,5.8345675,15.9,5.656455,16,5.481774,16.1,5.3122706,16.2,5.149639,16.3,4.9955072,16.4,4.8514085,16.5,4.7187862,16.6,4.5989656,16.7,4.493144,16.8,4.40238,16.9,4.327577,17,4.2694845,17.1,4.228683,17.2,4.2055798,17.3,4.200406,17.4,4.213213,17.5,4.243873,17.6,4.29208,17.7,4.3573523,17.8,4.4390354,17.9,4.536317,18,4.648223,18.1,4.773636,18.2,4.911302,18.3,5.0598435,18.4,5.217781,18.5,5.383535,18.6,5.555448,18.7,5.731803,18.8,5.9108343,18.9,6.09076,19,6.269779,19.1,6.446102,19.2,6.617968,19.3,6.783656,19.4,6.941518,19.5,7.0899715,19.6,7.2275352,19.7,7.352833,19.8,7.464612,19.9,7.561759,20,7.6433015,20.1,7.7084246,20.2,7.7564774,20.3,7.786979,20.4,7.7996273,20.5,7.7942934,20.6,7.771032,20.7,7.7300744,20.8,7.671832,20.9,7.596884,21,7.50598,21.1,7.400029,21.2,7.2800894,21.3,7.1473618,21.4,7.0031676,21.5,6.8489504,21.6,6.68625,21.7,6.5166936,21.8,6.341977,21.9,6.1638412,22,5.9840674,22.1,5.8044534,22.2,5.626793,22.3,5.452865,22.4,5.2844005,22.5,5.123086,22.6,4.9705334,22.7,4.828267,22.8,4.6977105,22.9,4.5801635,23,4.4768033,23.1,4.3886623,23.2,4.316622,23.3,4.2614017,23.4,4.223552,23.5,4.203452,23.6,4.2013035,23.7,4.2171264,23.8,4.2507625,23.9,4.301877,24,4.369959,24.1,4.4543276,24.2,4.5541406,24.3,4.668398,24.4,4.795962,24.5,4.9355564,24.6,5.085787,24.7,5.2451515,24.8,5.4120555,24.9,5.584837,25,5.761767,25.1,5.941077,25.2,6.120976,25.3,6.2996626,25.4,6.4753585,25.5,6.646305,25.6,6.810794,25.7,6.967181,25.8,7.113902,25.9,7.249496,26,7.3726053,26.1,7.482,26.2,7.5765867,26.3,7.6554193,26.4,7.717713,26.5,7.7628436,26.6,7.7903605,26.7,7.7999887,26.8,7.791632,26.9,7.765374,27,7.7214766,27.1,7.6603785,27.2,7.5826907,27.3,7.489191,27.4,7.38081,27.5,7.258632,27.6,7.1238785,27.7,6.9778953,27.8,6.822144,27.9,6.6581755,28,6.4876304,28.1,6.3122134,28.2,6.1336765,28.3,5.9538074,28.4,5.7743964,28.5,5.59724,28.6,5.4241076,28.7,5.256729,28.8,5.096781,28.9,4.945853,29,4.805459,29.1,4.677,29.2,4.5617604,29.3,4.460893,29.4,4.375402,29.5,4.3061438,29.6,4.2538095,29.7,4.218923,29.8,4.201833,29.9,4.202709,30,4.2215433,30.1,4.2581472,30.2,4.3121557,30.3,4.3830266,30.4,4.4700556,30.5,4.572371,30.6,4.688951,30.7,4.818631,30.8,4.9601116,30.9,5.1119857,31,5.2727323,31.1,5.4407454,31.2,5.614347,31.3,5.791798,31.4,5.9713326,31.5,6.151154,31.6,6.329465,31.7,6.504484,31.8,6.6744595,31.9,6.8376985,32,6.992568,32.1,7.137517,32.2,7.271106,32.3,7.391989,32.4,7.4989686,32.5,7.5909667,32.6,7.667069,32.7,7.7265167,32.8,7.768712,32.9,7.793236,33,7.7998414,33.1,7.788464,33.2,7.7592163,33.3,7.712392,33.4,7.648456,33.5,7.568052,33.6,7.471981,33.7,7.361198,33.8,7.2368193,33.9,7.100077,34,6.9523487,34.1,6.7951055,34.2,6.629911,34.3,6.4584293,34.4,6.2823606,34.5,6.1034775,34.6,5.92356,34.7,5.7444,34.8,5.5678005,34.9,5.3955126,35,5.2292714,35.1,5.07073,35.2,4.9214687,35.3,4.782989,35.4,4.656664,35.5,4.543766,35.6,4.4454184,35.7,4.3625994,35.8,4.296144,35.9,4.2467113,36,4.214798,36.1,4.2007217,36.2,4.204623,36.3,4.226463,36.4,4.2660246,36.5,4.32291,36.6,4.396551,36.7,4.4862175,36.8,4.5910053,36.9,4.709875,37,4.8416314,37.1,4.984961,37.2,5.1384387,37.3,5.3005185,37.4,5.469594,37.5,5.6439624,37.6,5.821888,37.7,6.0016003,37.8,6.181289,37.9,6.3591743,38,6.5334635,38.1,6.7024226,38.2,6.86437,38.3,7.0176744,38.4,7.160816,38.5,7.292354,38.6,7.4109797,38.7,7.5155115,38.8,7.604897,38.9,7.67825,39,7.734832,39.1,7.7740803,39.2,7.7956033,39.3,7.7991853,39.4,7.7847896,39.5,7.7525616,39.6,7.7028236,39.7,7.636069,39.8,7.55297,39.9,7.4543505,40,7.3412037,40.1,7.2146564,40.2,7.075968,40.3,6.926533,40.4,6.7678356,40.5,6.601472,40.6,6.429099,40.7,6.252432,40.8,6.0732493,40.9,5.8933277,41,5.7144794,41.1,5.538483,41.2,5.367092,41.3,5.202031,41.4,5.044937,41.5,4.897392,41.6,4.760863,41.7,4.63671,41.8,4.5261836,41.9,4.430379,42,4.350261,42.1,4.2866263,42.2,4.2401094,42.3,4.211178,42.4,4.200119,42.5,4.2070446,42.6,4.2318835,42.7,4.274391,42.8,4.334138,42.9,4.4105325,43,4.5028057,43.1,4.6100373,43.2,4.731162,43.3,4.8649592,43.4,5.010103,43.5,5.165132,43.6,5.3285027,43.7,5.4985886,43.8,5.6736784,43.9,5.852035,44,6.0318637,44.1,6.2113733,44.2,6.388778,44.3,6.562292,44.4,6.730194,44.5,6.890794,44.6,7.042493,44.7,7.1837816,44.8,7.313237,44.9,7.429576,45,7.531626,45.1,7.618374,45.2,7.688954,45.3,7.7426558,45.4,7.778948,45.5,7.7974634,45.6,7.7980204,45.7,7.7806115,45.8,7.745412,45.9,7.692771,46,7.623219,46.1,7.537449,46.2,7.4363127,46.3,7.3208303,46.4,7.1921453,46.5,7.0515537,46.6,6.900456,46.7,6.740355,46.8,6.572863,46.9,6.3996406,47,6.2224317,47.1,6.043,47.2,5.8631325,47.3,5.684639,47.4,5.5092897,47.5,5.3388505,47.6,5.1750164,47.7,5.0194197,47.8,4.8736267,47.9,4.7390823,48,4.6171417,48.1,4.509018,48.2,4.4157877,48.3,4.3383894,48.4,4.277591,48.5,4.234005,48.6,4.208063,48.7,4.2000256,48.8,4.2099724,48.9,4.237806,49,4.283245,49.1,4.3458376,49.2,4.42496,49.3,4.519817,49.4,4.629467,49.5,4.752807,49.6,4.888608,49.7,5.0355196,49.8,5.1920614,49.9,5.356683,50,5.527725,50.1,5.7034864,50.2,5.882217,50.3,6.062118,50.4,6.2414045,50.5,6.418273,50.6,6.5909615,50.7,6.7577524,50.8,6.9169655,50.9,7.0670223,51,7.2064123,51.1,7.333749,51.2,7.4477634,51.3,7.547308,51.4,7.631396,51.5,7.6991806,51.6,7.7499876,51.7,7.7833114,51.8,7.7988157,51.9,7.7963467,52,7.7759295,52.1,7.7377687,52.2,7.6822424,52.3,7.60991,52.4,7.521489,52.5,7.4178696,52.6,7.300083,52.7,7.169302,52.8,7.026843,52.9,6.874118,53,6.712665,53.1,6.544092,53.2,6.3700757,53.3,6.1923685,53.4,6.0127325,53.5,5.832976,53.6,5.654888,53.7,5.480242,53.8,5.310796,53.9,5.148229,54,4.9941797,54.1,4.8501797,54.2,4.717663,54.3,4.5979643,54.4,4.4922695,54.5,4.4016438,54.6,4.3269873,54.7,4.269045,54.8,4.2283998,54.9,4.205455,55,4.200441,55.1,4.213407,55.2,4.244225,55.3,4.292585,55.4,4.358007,55.5,4.4398327,55.6,4.5372467,55.7,4.64928,55.8,4.774805,55.9,4.9125767,56,5.0612082,56.1,5.2192197,56.2,5.3850384,56.3,5.5569954,56.4,5.7333856,56.5,5.9124327,56.6,6.092355,56.7,6.271361,56.8,6.447649,56.9,6.6194706,57,6.7850966,57.1,6.9428782,57.2,7.0912447,57.3,7.228702,57.4,7.353888,57.5,7.4655414,57.6,7.5625525,57.7,7.643954,57.8,7.7089267,57.9,7.7568264,58,7.787171,58.1,7.799659,58.2,7.7941656,58.3,7.7707458,58.4,7.7296324,58.5,7.6712384,58.6,7.5961466,58.7,7.505103,58.8,7.399025,58.9,7.278964,59,7.1461287,59.1,7.0018415,59.2,6.847539,59.3,6.684774,59.4,6.5151606,59.5,6.3404064,59.6,6.162251,59.7,5.9824677,59.8,5.8028665,59.9,5.625228,60,5.4513407,60.1,5.2829356,60.2,5.121689,60.3,4.969224,60.4,4.8270526,60.5,4.6966066,60.6,4.5791826,60.7,4.475951,60.8,4.3879514,60.9,4.316056,61,4.260988,61.1,4.223295,61.2,4.203354,61.3,4.2013645,61.4,4.217347,61.5,4.2511406,61.6,4.3024073,61.7,4.3706384,61.8,4.455147,61.9,4.5550942,62,4.6694746,62.1,4.797149,62.2,4.936847,62.3,5.0871625,62.4,5.2466044,62.5,5.413568,62.6,5.586391,62.7,5.763353,62.8,5.9426727,62.9,6.1225724,63,6.3012404,63.1,6.476898,63.2,6.647798,63.3,6.8122187,63.4,6.96853,63.5,7.1151586,63.6,7.2506447,63.7,7.37364,63.8,7.4829054,63.9,7.5773582,64,7.656047,64.1,7.7181892,64.2,7.763165,64.3,7.7905254,64.4,7.7999935,64.5,7.791477,64.6,7.7650614,64.7,7.7210107,64.8,7.659759,64.9,7.5819283,65,7.4882917,65.1,7.379785,65.2,7.2574925,65.3,7.1226254,65.4,6.976551,65.5,6.82072,65.6,6.656689,65.7,6.4860964,65.8,6.3106337,65.9,6.1320806,66,5.952208,66.1,5.772813,66.2,5.5956874,66.3,5.4225883,66.4,5.2552724,66.5,5.095397,66.6,4.9445596,66.7,4.804268,66.8,4.6759133,66.9,4.560799,67,4.460064,67.1,4.3747153,67.2,4.305605,67.3,4.253421,67.4,4.2186923,67.5,4.2017612,67.6,4.2027974,67.7,4.2217894,67.8,4.258552,67.9,4.312712,68,4.38373,68.1,4.470897,68.2,4.573342,68.3,4.69005,68.4,4.8198385,68.5,4.961418,68.6,5.1133747,68.7,5.27419,68.8,5.44227,68.9,5.6159096,69,5.7933874,69.1,5.972929,69.2,6.1527414,69.3,6.3310413,69.4,6.5060196,69.5,6.6759424,69.6,6.8391113,69.7,6.9938965,69.8,7.138762,69.9,7.2722383,70,7.3930035,70.1,7.4998503,70.2,7.591711,70.3,7.667674,70.4,7.726969,70.5,7.769008,70.6,7.793373,70.7,7.7998195,70.8,7.7882814,70.9,7.758877,71,7.7118983,71.1,7.6478157,71.2,7.5672693,71.3,7.4710555,71.4,7.3601503,71.5,7.235656,71.6,7.0988154,71.7,6.9509964,71.8,6.7936635,71.9,6.6284122,72,6.456882,72.1,6.280787,72.2,6.1018867,72.3,5.9219546,72.4,5.7428164,72.5,5.5662475,72.6,5.3940125,72.7,5.227832,72.8,5.0693545,72.9,4.920188,73,4.7818108,73.1,4.6556044,73.2,4.5428305,73.3,4.4446087,73.4,4.3619356,73.5,4.295629,73.6,4.2463512,73.7,4.214595,73.8,4.200677,73.9,4.204738,74,4.226737,74.1,4.266453,74.2,4.323489,74.3,4.397282,74.4,4.487084,74.5,4.5920014,74.6,4.710987,74.7,4.842851,74.8,4.9862885,74.9,5.139844,75,5.301993,75.1,5.4711165,75.2,5.645524,75.3,5.823487,75.4,6.0032,75.5,6.1828814,75.6,6.360735,75.7,6.5349846,75.8,6.703902,75.9,6.865773,76,7.018994,76.1,7.162033,76.2,7.2934628,76.3,7.4119773,76.4,7.5163746,76.5,7.605621,76.6,7.6788254,76.7,7.7352557,76.8,7.774351,76.9,7.7957144,77,7.799136,77.1,7.784582,77.2,7.7521977,77.3,7.702302,77.4,7.635401,77.5,7.5521603,77.6,7.453411,77.7,7.3401403,77.8,7.21347,77.9,7.074684,78,6.9251614,78.1,6.7663946,78.2,6.5999703,78.3,6.4275384,78.4,6.2508473,78.5,6.0716505,78.6,5.8917375,78.7,5.7129064,78.8,5.53693,78.9,5.3655944,79,5.2005973,79.1,5.043587,79.2,4.896133,79.3,4.759698,79.4,4.635666,79.5,4.5252657,79.6,4.4296,79.7,4.3496246,79.8,4.2861347,79.9,4.239774,80,4.2110004,80.1,4.2001014,80.2,4.2071857,80.3,4.2321854,80.4,4.274847,80.5,4.334745,80.6,4.4112806,80.7,4.5036907,80.8,4.611059,80.9,4.7322974,81,4.8662014,81.1,5.011434,81.2,5.166544,81.3,5.3299937,81.4,5.5001254,81.5,5.675252,81.6,5.853623,81.7,6.0334563,81.8,6.2129693,81.9,6.390341,82,6.563812,82.1,6.73165,82.2,6.8921776,82.3,7.0438023,82.4,7.1849866,82.5,7.314331,82.6,7.4305434,82.7,7.5324626,82.8,7.6190767,82.9,7.6895065,83,7.7430563,83.1,7.77919,83.2,7.7975473,83.3,7.797944,83.4,7.7803764,83.5,7.74502,83.6,7.692229,83.7,7.62253,83.8,7.5366125,83.9,7.435348,84,7.3197427,84.1,7.1909513,84.2,7.0502605,84.3,6.899064,84.4,6.7388964,84.5,6.571346,84.6,6.398087,84.7,6.2208505,84.8,6.0413938,84.9,5.861537,85,5.683064,85.1,5.507757,85.2,5.337369,85.3,5.1735888,85.4,5.0180783,85.5,4.872379,85.6,4.7379456,85.7,4.6161222,85.8,4.508118,85.9,4.4150286,86,4.3377748,86.1,4.277129,86.2,4.2336974,86.3,4.207912,86.4,4.2000346,86.5,4.210141,86.6,4.2381315,86.7,4.283725,86.8,4.346472,86.9,4.4257355,87,4.520728,87.1,4.630501,87.2,4.7539563,87.3,4.8898726,87.4,5.036871,87.5,5.193492,87.6,5.358171,87.7,5.529263,87.8,5.7050714,87.9,5.883814,88,6.063717,88.1,6.2429833,88.2,6.419822,88.3,6.592479,88.4,6.7592034,88.5,6.918342,88.6,7.068305,88.7,7.2075944,88.8,7.3348274,88.9,7.4487133,89,7.548125,89.1,7.6320686,89.2,7.699705,89.3,7.7503633,89.4,7.783528,89.5,7.798873,89.6,7.7962446,89.7,7.775669,89.8,7.737349,89.9,7.6816726,90,7.609194,90.1,7.5206375,90.2,7.4168873,90.3,7.298971,90.4,7.168085,90.5,7.0255284,90.6,6.872725,90.7,6.711202,90.8,6.54256,90.9,6.36851,91,6.1907773,91.1,6.0111394,91.2,5.8313894,91.3,5.6533113,91.4,5.47871,91.5,5.3093176,91.6,5.1468263,91.7,4.992859,91.8,4.8489437,91.9,4.716541,92,4.596961,92.1,4.4914,92.2,4.4009113,92.3,4.326395,92.4,4.2686067,92.5,4.2281175,92.6,4.2053313,92.7,4.2004766,92.8,4.2136035,92.9,4.2445784,93,4.2930923,93.1,4.3586607,93.2,4.440628,93.3,4.5381837,93.4,4.650338,93.5,4.7759776,93.6,4.913847,93.7,5.0625677,93.8,5.220668,93.9,5.3865423,94,5.5585465,94.1,5.734961,94.2,5.914024,94.3,6.0939593,94.4,6.2729425,94.5,6.4491982,94.6,6.6209664,94.7,6.78653,94.8,6.944247,94.9,7.092517,95,7.229871,95.1,7.3549376,95.2,7.466466,95.3,7.5633492,95.4,7.6446047,95.5,7.7094283,95.6,7.7571726,95.7,7.7873597,95.8,7.7996893,95.9,7.794036,96,7.7704577,96.1,7.7291903,96.2,7.6706457,96.3,7.5954027,96.4,7.504225,96.5,7.398018,96.6,7.277842,96.7,7.1448994,96.8,7.000506,96.9,6.846127,97,6.683294,97.1,6.5136337,97.2,6.338842,97.3,6.1606507,97.4,5.980868,97.5,5.801276,97.6,5.6236696,97.7,5.449824,97.8,5.281462,97.9,5.1202927,98,4.9679127,98.1,4.825845,98.2,4.695508,98.3,4.5781965,98.4,4.4751005,98.5,4.3872404,98.6,4.3154936,98.7,4.2605777,98.8,4.2230387,98.9,4.203257,99,4.2014275,99.1,4.2175684,99.2,4.2515182,99.3,4.3029423,99.4,4.371319,99.5,4.4559684,99.6,4.5560446,99.7,4.6705484,99.8,4.798345,99.9,4.938139" fill="none" stroke="black" stroke-width="0.1"/>
</svg>